<?xml version="1.0" encoding="utf-8"?>
<!-- Generator: Adobe Illustrator 27.7.0, SVG Export Plug-In . SVG Version: 6.00 Build 0)  -->
<svg version="1.1" id="Layer_1" xmlns="http://www.w3.org/2000/svg" xmlns:xlink="http://www.w3.org/1999/xlink" x="0px" y="0px"
	 viewBox="0 0 360 360" style="enable-background:new 0 0 360 360;" xml:space="preserve">
<style type="text/css">
	.st0{fill:#ED1C24;}
	.st1{fill:#FFFFFF;}
	.st2{fill:#D66227;}
	.st3{fill:#C25626;}
	.st4{fill:#E5A520;}
	.st5{fill:#E1712A;}
	.st6{fill:#AA3D11;}
	.st7{fill:none;stroke:#E1712A;stroke-width:2;stroke-miterlimit:10;}
	.st8{fill:none;stroke:#000000;stroke-width:5;stroke-miterlimit:10;}
	.st9{fill:#060D26;}
	.st10{font-family:'Poppins-SemiBold';}
	.st11{font-size:31px;}
	.st12{font-family:'Poppins-Medium';}
	.st13{font-size:22px;}
	.st14{fill:#1AACE3;}
	.st15{fill:#E4F4FA;}
	.st16{fill:#EB2841;}
	.st17{clip-path:url(#SVGID_00000036943455438185270610000009242298310222501296_);}
	.st18{clip-path:url(#SVGID_00000173869646482417844970000009634772002258349975_);}
	.st19{clip-path:url(#SVGID_00000056389639291038790680000009907983834777433757_);fill:#E3F4F8;}
	.st20{clip-path:url(#SVGID_00000056389639291038790680000009907983834777433757_);fill:#FFFFFF;}
	.st21{clip-path:url(#SVGID_00000056389639291038790680000009907983834777433757_);fill:#1AABE3;}
	.st22{clip-path:url(#SVGID_00000156560610747899087560000014917825665114155696_);}
	.st23{clip-path:url(#SVGID_00000041278796857201881260000008921492130786525836_);}
	.st24{clip-path:url(#SVGID_00000066478459326357950590000001666083971478195123_);}
	.st25{clip-path:url(#SVGID_00000112602455946548201720000014418454442174380442_);}
	.st26{clip-path:url(#SVGID_00000160159391603610929620000007228012081737709967_);fill:#E1F3FA;}
	.st27{clip-path:url(#SVGID_00000160159391603610929620000007228012081737709967_);fill:none;stroke:#A3DEF9;stroke-miterlimit:10;}
	.st28{clip-path:url(#SVGID_00000151501575402388649670000007510454051207704962_);fill:#E1F3FA;}
	.st29{clip-path:url(#SVGID_00000151501575402388649670000007510454051207704962_);fill:none;stroke:#A3DEF9;stroke-miterlimit:10;}
	.st30{clip-path:url(#SVGID_00000140001572114175076820000017318294193093476772_);fill:#E1F3FA;}
	.st31{clip-path:url(#SVGID_00000140001572114175076820000017318294193093476772_);fill:none;stroke:#A3DEF9;stroke-miterlimit:10;}
	.st32{clip-path:url(#SVGID_00000140001572114175076820000017318294193093476772_);fill:#E6E6E5;}
	
		.st33{clip-path:url(#SVGID_00000140001572114175076820000017318294193093476772_);fill:none;stroke:#7BD2F1;stroke-width:0.5;stroke-miterlimit:10;}
	.st34{clip-path:url(#SVGID_00000140001572114175076820000017318294193093476772_);fill:#60C0DD;}
	
		.st35{clip-path:url(#SVGID_00000140001572114175076820000017318294193093476772_);fill:none;stroke:#A5D3F1;stroke-width:0.5;stroke-miterlimit:10;}
	.st36{clip-path:url(#SVGID_00000140001572114175076820000017318294193093476772_);fill:#FFFFFF;}
	.st37{clip-path:url(#SVGID_00000000189535219177181240000010978286322160419001_);fill:#E3F4F8;}
	.st38{clip-path:url(#SVGID_00000116913694056058547010000012936368709712874130_);fill:#FFFFFF;}
	.st39{clip-path:url(#SVGID_00000116913694056058547010000012936368709712874130_);fill:#FDFEFE;}
	.st40{clip-path:url(#SVGID_00000116913694056058547010000012936368709712874130_);fill:#FCFAFC;}
	.st41{clip-path:url(#SVGID_00000077326367751675374260000007184517026422981534_);}
	.st42{clip-path:url(#SVGID_00000047755089457502655440000011256767227760955833_);}
	.st43{clip-path:url(#SVGID_00000024714381760739714400000017821160195282519434_);}
	.st44{clip-path:url(#SVGID_00000152944452513636010960000001992220281978188174_);}
	.st45{clip-path:url(#SVGID_00000085973165538362779150000002850906491922783144_);}
	.st46{clip-path:url(#SVGID_00000120557309631453811560000008333461727292049591_);}
	.st47{clip-path:url(#SVGID_00000084505167184371873550000009043398089268504204_);}
	.st48{clip-path:url(#SVGID_00000068657072473011464810000016501717069463672231_);fill:#E4F4F8;}
	.st49{clip-path:url(#SVGID_00000119113227981425134050000015608093737767852169_);fill:#E4F4F8;}
	.st50{clip-path:url(#SVGID_00000057108856957486904450000007659057731849848763_);}
	.st51{clip-path:url(#SVGID_00000174591727136421463720000009352384020517813136_);}
	.st52{clip-path:url(#SVGID_00000060028118112187989330000017906957503408936122_);fill:#E4F4F8;}
</style>
<g>
	<g>
		<circle class="st9" cx="180" cy="180" r="174.07"/>
		<g>
			<g>
				<g id="_x3C_Radial_Repeat_x3E__00000129902434374659688350000003419185628228260491_">
					<g>
						<path class="st1" d="M223.09,223.05c-10.58,0-20.63-3.91-28.46-11.13c-8.27-7.61-13.08-17.99-13.54-29.22l-0.05-1.31
							l1.31-0.05c11.23-0.46,21.97,3.48,30.24,11.09s13.08,17.99,13.54,29.22l0.05,1.31l-1.31,0.05
							C224.27,223.03,223.68,223.05,223.09,223.05z M183.78,183.92c0.74,10.02,5.19,19.24,12.62,26.08
							c7.34,6.76,16.77,10.43,26.69,10.43c0.11,0,0.22,0,0.33,0c-0.74-10.02-5.19-19.24-12.62-26.08
							c-7.34-6.76-16.77-10.43-26.69-10.43C184,183.92,183.89,183.92,183.78,183.92z"/>
					</g>
				</g>
				<g id="_x3C_Radial_Repeat_x3E__00000018210339240063062690000003680326536609096631_">
					<g>
						<path class="st1" d="M207.49,236.92l-1.24-0.42c-21.96-7.48-33.74-31.44-26.26-53.4l0.42-1.24l1.24,0.42
							c21.96,7.48,33.74,31.44,26.26,53.4L207.49,236.92z M182.06,185.2c-2.93,9.61-2.11,19.81,2.35,28.87
							c4.45,9.06,12.03,15.94,21.43,19.49c2.93-9.61,2.11-19.81-2.35-28.87C199.04,195.63,191.46,188.75,182.06,185.2z"/>
					</g>
				</g>
				<g id="_x3C_Radial_Repeat_x3E__00000017483801296366357590000006096857426672666040_">
					<g>
						<path class="st1" d="M185.03,243.18l-1-0.84c-8.61-7.22-13.89-17.37-14.87-28.57c-0.98-11.2,2.46-22.11,9.68-30.72l0.84-1
							l1,0.84c8.61,7.22,13.89,17.37,14.87,28.57c0.98,11.2-2.46,22.11-9.68,30.72L185.03,243.18z M180,185.78
							c-6.2,7.91-9.12,17.71-8.24,27.77c0.88,10.06,5.46,19.21,12.94,25.92c6.2-7.91,9.12-17.71,8.24-27.77
							C192.06,201.64,187.48,192.48,180,185.78z"/>
					</g>
				</g>
				<g id="_x3C_Radial_Repeat_x3E__00000118387873486178329930000015840249876179110785_">
					<g>
						<path class="st1" d="M161.82,240.92l-0.63-1.15c-11.19-20.33-3.75-45.97,16.57-57.16l1.15-0.63l0.63,1.15
							c5.42,9.85,6.68,21.22,3.55,32.01c-3.13,10.79-10.28,19.73-20.12,25.14L161.82,240.92z M177.87,185.57
							c-17.81,10.59-24.39,33.29-15.01,51.76c8.64-5.13,14.9-13.22,17.72-22.92C183.38,204.71,182.42,194.52,177.87,185.57z"/>
					</g>
				</g>
				<g id="_x3C_Radial_Repeat_x3E__00000145740207168328257130000000660140013325161372_">
					<g>
						<path class="st1" d="M140.99,230.42l-0.17-1.3c-1.5-11.14,1.43-22.2,8.25-31.13c6.82-8.94,16.71-14.68,27.85-16.18l1.3-0.17
							l0.17,1.3c3.09,23-13.11,44.22-36.1,47.31L140.99,230.42z M175.95,184.6c-9.91,1.66-18.68,6.95-24.8,14.97
							c-6.13,8.03-8.9,17.88-7.9,27.87c9.91-1.66,18.68-6.95,24.8-14.97C174.18,204.45,176.96,194.6,175.95,184.6z"/>
					</g>
				</g>
				<g id="_x3C_Radial_Repeat_x3E__00000043455520079724559660000011360229319453661586_">
					<g>
						<path class="st1" d="M136.56,214.59c-3.3,0-6.63-0.39-9.92-1.18l-1.27-0.31l0.31-1.27c2.63-10.93,9.36-20.18,18.94-26.05
							c9.59-5.87,20.88-7.65,31.81-5.02l1.27,0.31l-0.31,1.27c-2.63,10.93-9.36,20.18-18.94,26.05
							C151.76,212.49,144.22,214.59,136.56,214.59z M128.55,211.15c9.84,2.03,19.92,0.27,28.53-5c8.61-5.27,14.76-13.45,17.43-23.14
							c-9.84-2.03-19.92-0.27-28.53,5C137.37,193.29,131.22,201.47,128.55,211.15z"/>
					</g>
				</g>
				<g id="_x3C_Radial_Repeat_x3E__00000110462363443420949090000015559315332957202341_">
					<g>
						<path class="st1" d="M142,199.56c-8.48,0-16.75-2.57-23.87-7.5l-1.08-0.75l0.75-1.08c13.21-19.08,39.48-23.85,58.55-10.64
							l1.08,0.75l-0.75,1.08c-6.4,9.24-16.01,15.44-27.07,17.45C147.07,199.33,144.53,199.56,142,199.56z M120.73,190.65
							c8.44,5.44,18.48,7.45,28.41,5.64c9.93-1.8,18.62-7.21,24.61-15.28C156.34,169.79,133.08,174.02,120.73,190.65z"/>
					</g>
				</g>
				<g id="_x3C_Radial_Repeat_x3E__00000047058428205268229450000014422301431440632479_">
					<g>
						<path class="st1" d="M152.83,187.57c-2.67,0-5.35-0.25-8.03-0.77c-11.04-2.12-20.59-8.41-26.89-17.72l-0.73-1.08l1.08-0.73
							c19.21-13.02,45.42-7.98,58.44,11.23l0.73,1.08l-1.08,0.73C169.3,185.09,161.16,187.57,152.83,187.57z M120.84,168.7
							c5.91,8.13,14.54,13.62,24.46,15.53c9.91,1.91,19.97,0,28.47-5.36C161.58,162.12,138.37,157.66,120.84,168.7z"/>
					</g>
				</g>
				<g id="_x3C_Radial_Repeat_x3E__00000020382643401372563560000003846844434967291277_">
					<g>
						<path class="st1" d="M167.01,180.23c-19.17,0-36.53-13.2-41.01-32.66l-0.29-1.28l1.28-0.29c10.96-2.52,22.23-0.62,31.76,5.35
							c9.53,5.97,16.16,15.28,18.68,26.24l0.29,1.28l-1.28,0.29C173.28,179.88,170.12,180.23,167.01,180.23z M128.87,148.27
							c5.31,20.02,25.34,32.57,45.68,28.6C169.24,156.85,149.21,144.31,128.87,148.27z"/>
					</g>
				</g>
				<g id="_x3C_Radial_Repeat_x3E__00000077284832094198952420000013465845164907090603_">
					<g>
						<path class="st1" d="M178.24,178.29l-1.3-0.19c-22.96-3.32-38.94-24.71-35.62-47.67l0.19-1.3l1.3,0.19
							c11.12,1.61,20.96,7.45,27.68,16.46c6.73,9,9.55,20.09,7.94,31.21L178.24,178.29z M143.74,132.13
							c-1.11,9.99,1.57,19.86,7.61,27.95c6.04,8.09,14.76,13.46,24.65,15.22C178.28,154.71,164.13,135.78,143.74,132.13z"/>
					</g>
				</g>
				<g id="_x3C_Radial_Repeat_x3E__00000073681078054742542810000004987452796899959736_">
					<g>
						<path class="st1" d="M178.93,177.95l-1.14-0.64c-20.21-11.39-27.39-37.11-16-57.32l0.64-1.14l1.14,0.64
							c9.79,5.52,16.85,14.52,19.87,25.35c3.02,10.83,1.65,22.18-3.87,31.97L178.93,177.95z M163.44,122.45
							c-4.64,8.91-5.71,19.09-3,28.81c2.71,9.72,8.9,17.88,17.48,23.1c4.64-8.91,5.71-19.09,3-28.81
							C178.21,135.82,172.02,127.66,163.44,122.45z"/>
					</g>
				</g>
				<g id="_x3C_Radial_Repeat_x3E__00000028286523647083533090000014083986218996911275_">
					<g>
						<path class="st1" d="M179.69,177.89l-0.83-1.01c-14.73-17.93-12.14-44.49,5.79-59.23l1.01-0.83l0.83,1.01
							c7.14,8.68,10.47,19.63,9.37,30.81c-1.09,11.19-6.48,21.28-15.16,28.41L179.69,177.89z M185.3,120.53
							c-7.55,6.63-12.22,15.74-13.2,25.78c-0.98,10.05,1.84,19.89,7.96,27.85c7.55-6.63,12.22-15.74,13.2-25.78
							C194.24,138.34,191.42,128.5,185.3,120.53z"/>
					</g>
				</g>
				<g id="_x3C_Radial_Repeat_x3E__00000046297644440238376050000009725807203655450814_">
					<g>
						<path class="st1" d="M180.43,178.1l-0.41-1.24c-3.52-10.68-2.67-22.08,2.39-32.12c5.06-10.04,13.73-17.5,24.4-21.02l1.24-0.41
							l0.41,1.24c7.26,22.04-4.76,45.87-26.79,53.14L180.43,178.1z M206.38,126.64c-9.43,3.46-17.08,10.26-21.63,19.27
							c-4.55,9.01-5.47,19.21-2.64,28.85C201.56,167.63,212.21,146.52,206.38,126.64z"/>
					</g>
				</g>
				<g id="_x3C_Radial_Repeat_x3E__00000109715727738223846010000002663966148431280796_">
					<g>
						<path class="st1" d="M184.53,178.69c-0.72,0-1.45-0.02-2.18-0.06l-1.31-0.07l0.07-1.31c0.58-11.23,5.49-21.55,13.83-29.08
							c8.34-7.53,19.12-11.36,30.35-10.78l1.31,0.07l-0.07,1.31C225.38,161.21,206.75,178.69,184.53,178.69z M183.82,176.07
							c0.24,0,0.48,0.01,0.71,0.01c20.4,0,37.57-15.71,39.3-36.11c-10.05-0.19-19.63,3.4-27.13,10.16
							C189.2,156.88,184.66,166.05,183.82,176.07z"/>
					</g>
				</g>
				<g id="_x3C_Radial_Repeat_x3E__00000078010417141447989280000009327961987987622041_">
					<g>
						<path class="st1" d="M199.82,183.45c-5.85,0-11.68-1.23-17.17-3.69l-1.19-0.53l0.53-1.2c9.48-21.18,34.42-30.7,55.6-21.22
							l1.19,0.53l-0.53,1.2c-4.59,10.26-12.9,18.12-23.41,22.12C209.96,182.53,204.88,183.45,199.82,183.45z M184.93,177.89
							c9.3,3.8,19.54,3.93,28.97,0.33c9.43-3.6,16.98-10.51,21.39-19.54C216.11,150.85,194.02,159.28,184.93,177.89z"/>
					</g>
				</g>
				<g id="_x3C_Radial_Repeat_x3E__00000152241170901278134130000003454165234192637059_">
					<g>
						<path class="st1" d="M212.41,193.37c-10.85,0-21.69-4.16-29.91-12.46l-0.92-0.93l0.93-0.92c7.94-7.86,18.44-12.17,29.6-12.17
							c0.07,0,0.15,0,0.22,0c11.24,0.06,21.78,4.49,29.69,12.47l0.92,0.93l-0.93,0.92C233.82,189.32,223.11,193.37,212.41,193.37z
							 M185.32,180c15.06,14.23,38.69,14.35,53.89,0.27c-7.3-6.9-16.8-10.72-26.89-10.77c-0.07,0-0.14,0-0.21,0
							C202.09,169.5,192.64,173.22,185.32,180z"/>
					</g>
				</g>
				<g id="_x3C_Radial_Repeat_x3E__00000101086437395483322450000017528911176813107644_">
					<g>
						<path class="st1" d="M220.55,207.24c-5.21,0-10.42-0.98-15.41-2.94c-10.46-4.11-18.69-12.05-23.18-22.36l-0.52-1.2l1.2-0.52
							c10.3-4.49,21.74-4.7,32.2-0.58c10.46,4.11,18.69,12.05,23.18,22.36l0.52,1.2l-1.2,0.52
							C231.96,206.06,226.26,207.24,220.55,207.24z M184.91,182.1c4.31,9.07,11.79,16.06,21.19,19.76
							c9.39,3.7,19.63,3.67,28.97-0.03c-4.31-9.07-11.79-16.06-21.19-19.76C204.49,178.38,194.25,178.4,184.91,182.1z"/>
					</g>
				</g>
			</g>
			<g>
				<g>
					<circle class="st1" cx="179.49" cy="179.97" r="12.79"/>
				</g>
			</g>
		</g>
	</g>
	<text transform="matrix(1 0 0 1 139.9873 67.0631)" class="st1 st10 st11">C &amp; L</text>
	<text transform="matrix(1 0 0 1 83.0364 285.2433)" class="st1 st12 st13">The Custom Book</text>
</g>
</svg>
